# xmcd
#
# Track frame offsets:
# 150
# 18653
# 38845
# 70849
# 91292
# 127152
# 158484
# 189402
# 207504
# 228779
# 250750
# 269498
# 290489
# 309010
# 330568
#
# Disc length: 4720 seconds
#
#
# Revision: 0
# Processed by: cddbd v1.4PL0 Copyright (c) Steve Scherf et al.
# Submitted via: FreeRIP 2.51 
#
DISCID=cc126e0f
DTITLE=Barry White - Love Songs
DYEAR=2003
DGENRE=Easy Listening
TTITLE0=Love's Theme
TTITLE1=Can't Get Enough of Your Love, Babe
TTITLE2=I'm Gonna Love Just a Little More, Baby
TTITLE3=You're the First, The Last, My Everything
TTITLE4=Never Never Gonna Give You Up
TTITLE5=Just The Way You Are
TTITLE6=It's Ecstasy When You Lay Down Next to Me
TTITLE7=Practice What You Preach
TTITLE8=Walking in the Rain (With the One I Love)
TTITLE9=Dark and Lovely (You Over There)
TTITLE10=It May Be Winter Outside (But in My Heart It's Spring)
TTITLE11=Don't Make Me Wait Too Long
TTITLE12=I'll Do For You Anything You Want Me To
TTITLE13=Love Serenade
TTITLE14=Midnight And You
EXTD=
EXTT0=
EXTT1=
EXTT2=
EXTT3=
EXTT4=
EXTT5=
EXTT6=
EXTT7=
EXTT8=
EXTT9=
EXTT10=
EXTT11=
EXTT12=
EXTT13=
EXTT14=
PLAYORDER=
